<svg width="36" height="36" viewBox="0 0 36 36" fill="none" xmlns="http://www.w3.org/2000/svg">
<path d="M32.4545 0H3.24545C1.45234 0 0 1.45234 0 3.24545V32.4545C0 34.2477 1.45234 35.7 3.24545 35.7H19.4727V21.0955H14.6045V16.2273H19.4727V13.6131C19.4727 8.66374 21.8841 6.49091 25.9977 6.49091C27.9677 6.49091 29.0095 6.63695 29.5028 6.70349V11.3591H26.6971C24.9511 11.3591 24.3409 12.2808 24.3409 14.1469V16.2273H29.459L28.7645 21.0955H24.3409V35.7H32.4545C34.2477 35.7 35.7 34.2477 35.7 32.4545V3.24545C35.7 1.45234 34.246 0 32.4545 0Z" fill="#BEC2CC"/>
</svg>
