<svg width="139" height="193" viewBox="0 0 139 193" fill="none" xmlns="http://www.w3.org/2000/svg">
<path d="M73.9375 48.3437H51.1875C40.1936 48.3437 31.2812 39.4314 31.2812 28.4375C31.2812 17.4436 40.1936 8.53125 51.1875 8.53125H73.9375V48.3437Z" fill="#E64A19"/>
<path d="M71.0938 88.1563H51.1875C40.1936 88.1563 31.2812 79.2439 31.2812 68.25C31.2812 57.2561 40.1936 48.3438 51.1875 48.3438H71.0938V88.1563Z" fill="#7C4DFF"/>
<path d="M51.1875 127.969C40.1936 127.969 31.2812 119.056 31.2812 108.062C31.2812 97.0686 40.1936 88.1562 51.1875 88.1562H71.0938V108.062C71.0938 119.056 62.1814 127.969 51.1875 127.969Z" fill="#66BB6A"/>
<path d="M91 48.3437H71.0938V8.53125H91C101.994 8.53125 110.906 17.4436 110.906 28.4375C110.906 39.4314 101.994 48.3437 91 48.3437Z" fill="#FF7043"/>
<path d="M91 88.1563C101.994 88.1563 110.906 79.2439 110.906 68.25C110.906 57.2561 101.994 48.3438 91 48.3438C80.0061 48.3438 71.0938 57.2561 71.0938 68.25C71.0938 79.2439 80.0061 88.1563 91 88.1563Z" fill="#29B6F6"/>
<path d="M47.3938 156V140.742H55.5969L55.5354 141.88H48.7165V147.91H55.2278V148.966H48.7165V156H47.3938ZM57.6887 156V144.762H58.9705V156H57.6887ZM57.6887 142.465V140.742H58.9602V142.465H57.6887ZM63.8616 161.219L63.7078 160.081H66.0867C66.613 160.081 67.0779 160.033 67.4812 159.938C67.8845 159.849 68.2229 159.729 68.4963 159.579C68.7766 159.435 69.0124 159.23 69.2038 158.963C69.4021 158.704 69.5559 158.444 69.6653 158.184C69.7747 157.924 69.8567 157.586 69.9114 157.169C69.9729 156.759 70.0105 156.379 70.0242 156.031C70.0378 155.689 70.0447 155.255 70.0447 154.729C70.0447 154.804 70.0378 154.787 70.0242 154.677C69.99 154.206 69.9729 153.97 69.9729 153.97C69.5422 154.619 69.033 155.122 68.4451 155.477C67.8572 155.826 67.1394 156 66.2917 156C65.6218 156 65.01 155.88 64.4563 155.641C63.9094 155.402 63.4582 155.091 63.1028 154.708C62.7541 154.325 62.4602 153.888 62.2209 153.396C61.9817 152.903 61.8108 152.415 61.7082 151.929C61.6057 151.437 61.5544 150.952 61.5544 150.473C61.5544 149.872 61.6023 149.301 61.698 148.761C61.8005 148.214 61.9748 147.681 62.2209 147.161C62.467 146.642 62.7747 146.194 63.1438 145.818C63.5129 145.435 63.988 145.131 64.5691 144.905C65.1501 144.673 65.8064 144.557 66.5378 144.557C67.2556 144.557 67.8879 144.7 68.4348 144.987C68.9885 145.268 69.5012 145.719 69.9729 146.341L70.0959 144.762H71.2239V155.18C71.2239 155.631 71.217 155.993 71.2034 156.267C71.1965 156.547 71.1555 156.923 71.0803 157.395C71.012 157.873 70.9128 158.263 70.783 158.563C70.6599 158.871 70.4685 159.209 70.2087 159.579C69.949 159.948 69.6345 160.238 69.2654 160.45C68.9031 160.662 68.4348 160.843 67.8606 160.994C67.2932 161.144 66.6472 161.219 65.9226 161.219H63.8616ZM66.4558 154.964C66.9548 154.964 67.406 154.886 67.8093 154.729C68.2126 154.564 68.5442 154.353 68.8039 154.093C69.0705 153.826 69.2927 153.515 69.4705 153.16C69.655 152.804 69.7849 152.438 69.8601 152.062C69.9353 151.68 69.9729 151.287 69.9729 150.883V149.714C69.9729 149.181 69.908 148.679 69.7781 148.207C69.6482 147.735 69.4465 147.301 69.1731 146.905C68.9065 146.501 68.5373 146.184 68.0657 145.951C67.594 145.719 67.0471 145.603 66.425 145.603C65.9192 145.603 65.4612 145.702 65.051 145.9C64.6477 146.091 64.3162 146.348 64.0564 146.669C63.7966 146.99 63.5779 147.366 63.4001 147.797C63.2224 148.228 63.0959 148.668 63.0207 149.12C62.9524 149.564 62.9182 150.022 62.9182 150.494C62.9182 150.911 62.949 151.317 63.0105 151.714C63.0788 152.104 63.1951 152.5 63.3591 152.903C63.53 153.307 63.7454 153.659 64.0051 153.959C64.2649 154.253 64.6033 154.496 65.0203 154.688C65.4441 154.872 65.9226 154.964 66.4558 154.964ZM74.1975 156C74.177 149.205 74.1667 145.459 74.1667 144.762H75.2742L75.4382 146.484C75.7663 145.924 76.2551 145.462 76.9045 145.1C77.5608 144.738 78.2546 144.557 78.9861 144.557C80.7839 144.557 81.9119 145.264 82.3699 146.679C83.1697 145.264 84.4309 144.557 86.1536 144.557C87.384 144.557 88.2864 144.909 88.8606 145.613C89.4416 146.31 89.7322 147.353 89.7322 148.74V156H88.4607V150.504C88.4607 149.984 88.4538 149.55 88.4402 149.202C88.4265 148.853 88.3923 148.474 88.3376 148.063C88.2898 147.653 88.2112 147.318 88.1018 147.059C87.9993 146.799 87.8625 146.553 87.6916 146.32C87.5207 146.088 87.302 145.917 87.0354 145.808C86.7688 145.698 86.4543 145.644 86.092 145.644C85.2307 145.644 84.4993 145.9 83.8977 146.413C83.303 146.918 82.8894 147.633 82.657 148.556C82.6706 149.253 82.6877 149.793 82.7082 150.176V156H81.447V150.278C81.447 149.697 81.4299 149.195 81.3957 148.771C81.3616 148.34 81.2932 147.92 81.1907 147.51C81.0881 147.1 80.948 146.765 80.7703 146.505C80.5994 146.245 80.3669 146.037 80.073 145.879C79.7859 145.722 79.4407 145.644 79.0373 145.644C78.1077 145.644 77.3284 145.893 76.6995 146.392C76.0774 146.884 75.6741 147.558 75.4895 148.412C75.4758 148.692 75.469 149.092 75.469 149.612V156H74.1975ZM95.6897 156.246C94.6301 156.246 93.7825 155.979 93.1467 155.446C92.511 154.913 92.1931 154.151 92.1931 153.16C92.1931 152.572 92.3196 152.062 92.5725 151.632C92.8254 151.194 93.1912 150.842 93.6697 150.576C94.155 150.302 94.7053 150.09 95.3205 149.94C95.9426 149.79 96.6638 149.684 97.4841 149.622C98.3591 149.567 99.0085 149.523 99.4324 149.489V148.238C99.4324 147.376 99.2341 146.73 98.8376 146.3C98.448 145.862 97.8191 145.644 96.9509 145.644C95.7615 145.644 94.6506 145.927 93.6184 146.495C93.5911 146.426 93.5261 146.279 93.4236 146.054C93.3279 145.821 93.2595 145.644 93.2185 145.521C93.6423 145.247 94.196 145.018 94.8796 144.833C95.5632 144.649 96.2331 144.557 96.8894 144.557C98.2361 144.557 99.2034 144.847 99.7913 145.428C100.379 146.002 100.673 147.024 100.673 148.494V156H99.6785C99.6443 155.843 99.593 155.532 99.5247 155.067C99.4631 154.602 99.4324 154.363 99.4324 154.349C98.5505 155.614 97.303 156.246 95.6897 156.246ZM95.7307 155.231C96.6057 155.231 97.3816 154.975 98.0583 154.462C98.7419 153.942 99.1897 153.225 99.4016 152.309V150.391C98.4172 150.473 97.9216 150.514 97.9148 150.514C96.2468 150.665 95.0881 150.938 94.4387 151.334C93.7893 151.731 93.4646 152.346 93.4646 153.18C93.4646 153.864 93.6697 154.376 94.0798 154.718C94.4968 155.06 95.0471 155.231 95.7307 155.231Z" fill="black"/>
</svg>
