<svg width="45" height="45" viewBox="0 0 45 45" fill="none" xmlns="http://www.w3.org/2000/svg">
<path d="M15.106 4.8999C9.47866 4.8999 4.8999 9.48136 4.8999 15.1101V29.6925C4.8999 35.3205 9.48136 39.8999 15.1101 39.8999H29.6925C35.3205 39.8999 39.8999 35.3184 39.8999 29.6897V15.106C39.8999 9.47866 35.3184 4.8999 29.6897 4.8999H15.106ZM32.8999 10.4999C33.6727 10.4999 34.2999 11.1271 34.2999 11.8999C34.2999 12.6727 33.6727 13.2999 32.8999 13.2999C32.1271 13.2999 31.4999 12.6727 31.4999 11.8999C31.4999 11.1271 32.1271 10.4999 32.8999 10.4999ZM22.3999 13.2999C27.4189 13.2999 31.4999 17.3809 31.4999 22.3999C31.4999 27.4189 27.4182 31.4999 22.3999 31.4999C17.3809 31.4999 13.2999 27.4182 13.2999 22.3999C13.2999 17.3816 17.3809 13.2999 22.3999 13.2999ZM22.3999 16.0999C18.9202 16.0999 16.0999 18.9202 16.0999 22.3999C16.0999 25.8796 18.9202 28.6999 22.3999 28.6999C25.8796 28.6999 28.6999 25.8796 28.6999 22.3999C28.6999 18.9202 25.8796 16.0999 22.3999 16.0999Z" fill="#BEC2CC"/>
</svg>
