<svg width="132" height="168" viewBox="0 0 132 168" fill="none" xmlns="http://www.w3.org/2000/svg">
<path d="M16.3843 114.689V16.3842H114.689V114.689H16.3843Z" fill="#FFD600"/>
<path d="M80.6591 89.9682C82.5488 93.0375 84.6023 95.9785 88.9523 95.9785C92.6059 95.9785 94.5229 94.1626 94.5229 91.6503C94.5229 88.6438 92.5404 87.5761 88.5208 85.8258L86.3172 84.8864C79.9574 82.1885 75.7275 78.8079 75.7275 71.6671C75.7275 65.0861 80.7656 60.078 88.6382 60.078C94.2444 60.078 98.2721 62.0196 101.178 67.1041L94.3126 71.4924C92.8025 68.7944 91.1696 67.7322 88.6382 67.7322C86.055 67.7322 84.4193 69.3624 84.4193 71.4924C84.4193 74.1247 86.0577 75.1897 89.8397 76.8199L92.0434 77.7593C99.5392 80.9515 103.766 84.2119 103.766 91.5411C103.766 99.4383 97.5294 103.766 89.1571 103.766C80.9677 103.766 76.3173 99.6567 73.7286 94.5695L80.6591 89.9682ZM49.0213 90.1922C50.403 92.6662 52.503 94.5695 55.5231 94.5695C58.4122 94.5695 60.0752 93.428 60.0752 88.9906V60.0753H69.1766V90.3888C69.1766 99.583 63.8435 103.766 56.0556 103.766C49.0186 103.766 43.9395 98.9986 41.8696 94.5695L49.0213 90.1922Z" fill="#000001"/>
<path d="M21.0744 154.488L20.8591 153.545L21.4743 153.514C21.6931 153.514 21.8913 153.497 22.069 153.463C22.2468 153.429 22.4006 153.388 22.5305 153.34C22.6603 153.299 22.7731 153.231 22.8688 153.135C22.9714 153.039 23.0534 152.954 23.1149 152.879C23.1833 152.803 23.2414 152.694 23.2892 152.55C23.3371 152.4 23.3713 152.277 23.3918 152.181C23.4123 152.086 23.4294 151.945 23.4431 151.761C23.4567 151.576 23.4636 151.433 23.4636 151.33C23.4636 151.221 23.4636 151.064 23.4636 150.859V137.549H24.8273V149.966C24.8273 150.397 24.8239 150.718 24.8171 150.93C24.8171 151.142 24.8068 151.419 24.7863 151.761C24.7658 152.096 24.7316 152.342 24.6838 152.499C24.6428 152.656 24.5812 152.855 24.4992 153.094C24.424 153.333 24.3249 153.504 24.2018 153.607C24.0788 153.716 23.925 153.839 23.7404 153.976C23.5627 154.119 23.3542 154.218 23.1149 154.273C22.8757 154.335 22.5954 154.386 22.2741 154.427C21.9597 154.468 21.6008 154.488 21.1974 154.488H21.0744ZM30.8259 153.319C29.7663 153.319 28.9186 153.053 28.2829 152.52C27.6472 151.986 27.3293 151.224 27.3293 150.233C27.3293 149.645 27.4557 149.136 27.7087 148.705C27.9616 148.268 28.3273 147.916 28.8058 147.649C29.2912 147.376 29.8415 147.164 30.4567 147.013C31.0788 146.863 31.8 146.757 32.6203 146.695C33.4953 146.641 34.1447 146.596 34.5685 146.562V145.311C34.5685 144.45 34.3703 143.804 33.9738 143.373C33.5842 142.936 32.9553 142.717 32.0871 142.717C30.8976 142.717 29.7868 143.001 28.7546 143.568C28.7272 143.5 28.6623 143.353 28.5598 143.127C28.4641 142.895 28.3957 142.717 28.3547 142.594C28.7785 142.32 29.3322 142.091 30.0158 141.907C30.6994 141.722 31.3693 141.63 32.0256 141.63C33.3723 141.63 34.3395 141.921 34.9274 142.502C35.5153 143.076 35.8093 144.098 35.8093 145.568V153.073H34.8146C34.7805 152.916 34.7292 152.605 34.6608 152.14C34.5993 151.675 34.5685 151.436 34.5685 151.422C33.6867 152.687 32.4391 153.319 30.8259 153.319ZM30.8669 152.304C31.7419 152.304 32.5178 152.048 33.1945 151.535C33.8781 151.016 34.3259 150.298 34.5378 149.382V147.464C33.5534 147.547 33.0578 147.588 33.051 147.588C31.383 147.738 30.2243 148.011 29.5749 148.408C28.9255 148.804 28.6008 149.42 28.6008 150.254C28.6008 150.937 28.8058 151.45 29.216 151.792C29.633 152.133 30.1833 152.304 30.8669 152.304ZM41.6642 153.073L37.3781 141.835H38.7419L41.3464 148.921C41.4831 149.365 41.6437 149.84 41.8283 150.346C42.0197 150.845 42.1735 151.234 42.2897 151.515L42.4641 151.935C42.5939 151.498 42.7614 151.029 42.9665 150.53C43.1784 150.025 43.3698 149.498 43.5407 148.951C43.7253 148.363 44.0602 147.478 44.5456 146.296C45.0309 145.106 45.5607 143.619 46.1349 141.835H47.4987L43.1408 153.073H41.6642ZM51.9284 153.319C50.8688 153.319 50.0212 153.053 49.3854 152.52C48.7497 151.986 48.4318 151.224 48.4318 150.233C48.4318 149.645 48.5583 149.136 48.8112 148.705C49.0641 148.268 49.4299 147.916 49.9084 147.649C50.3937 147.376 50.944 147.164 51.5593 147.013C52.1813 146.863 52.9025 146.757 53.7228 146.695C54.5978 146.641 55.2473 146.596 55.6711 146.562V145.311C55.6711 144.45 55.4728 143.804 55.0764 143.373C54.6867 142.936 54.0578 142.717 53.1896 142.717C52.0002 142.717 50.8893 143.001 49.8571 143.568C49.8298 143.5 49.7648 143.353 49.6623 143.127C49.5666 142.895 49.4982 142.717 49.4572 142.594C49.881 142.32 50.4348 142.091 51.1183 141.907C51.8019 141.722 52.4719 141.63 53.1281 141.63C54.4748 141.63 55.4421 141.921 56.03 142.502C56.6179 143.076 56.9118 144.098 56.9118 145.568V153.073H55.9172C55.883 152.916 55.8317 152.605 55.7634 152.14C55.7018 151.675 55.6711 151.436 55.6711 151.422C54.7892 152.687 53.5417 153.319 51.9284 153.319ZM51.9694 152.304C52.8444 152.304 53.6203 152.048 54.2971 151.535C54.9807 151.016 55.4284 150.298 55.6403 149.382V147.464C54.6559 147.547 54.1603 147.588 54.1535 147.588C52.4855 147.738 51.3268 148.011 50.6774 148.408C50.028 148.804 49.7033 149.42 49.7033 150.254C49.7033 150.937 49.9084 151.45 50.3185 151.792C50.7355 152.133 51.2858 152.304 51.9694 152.304ZM63.259 153.33C62.5344 153.33 61.8542 153.241 61.2184 153.063C60.5827 152.885 60.0803 152.673 59.7111 152.427L59.8957 151.361C61.0236 151.949 62.1037 152.243 63.1359 152.243C64.9885 152.243 65.9489 151.556 66.0173 150.182C66.0173 149.608 65.8293 149.156 65.4533 148.828C65.0842 148.5 64.3391 148.158 63.218 147.803C62.6301 147.598 62.3054 147.485 62.2438 147.464C60.487 146.931 59.6017 145.984 59.5881 144.624C59.5881 143.838 59.9333 143.144 60.6237 142.543C61.321 141.934 62.2609 141.63 63.4435 141.63C64.6262 141.63 65.737 141.862 66.7761 142.327L66.3454 143.271C65.2927 142.874 64.3151 142.676 63.4128 142.676C62.6198 142.676 61.9943 142.854 61.5363 143.209C61.0851 143.565 60.8596 144.043 60.8596 144.645C60.8596 145.151 61.0065 145.54 61.3005 145.814C61.6013 146.08 62.1926 146.337 63.0744 146.583C63.1701 146.61 63.3444 146.672 63.5974 146.767C63.8571 146.863 64.0007 146.914 64.028 146.921C65.2106 147.283 66.0344 147.714 66.4992 148.213C66.9709 148.705 67.2067 149.379 67.2067 150.233C67.1862 151.217 66.8171 151.98 66.0993 152.52C65.3884 153.06 64.4416 153.33 63.259 153.33ZM74.3434 153.319C73.2565 153.319 72.3132 153.053 71.5134 152.52C70.7136 151.986 70.1188 151.293 69.7292 150.438C69.3395 149.577 69.1447 148.62 69.1447 147.567C69.1447 146.76 69.2609 146.002 69.4933 145.291C69.7258 144.58 70.0539 143.951 70.4777 143.404C70.9084 142.857 71.4587 142.426 72.1286 142.112C72.8054 141.791 73.5573 141.63 74.3845 141.63C74.9245 141.63 75.4611 141.702 75.9943 141.845C76.5344 141.989 76.9343 142.16 77.194 142.358L76.7941 143.312C76.09 142.915 75.256 142.717 74.2922 142.717C73.1232 142.717 72.197 143.161 71.5134 144.05C70.8298 144.932 70.488 146.104 70.488 147.567C70.488 148.968 70.8264 150.103 71.5031 150.971C72.1867 151.833 73.1164 152.263 74.2922 152.263C75.1125 152.263 75.9943 152.058 76.9377 151.648L77.1325 152.561C76.8112 152.8 76.3942 152.984 75.8815 153.114C75.3688 153.251 74.8561 153.319 74.3434 153.319ZM79.5832 153.073C79.5695 146.477 79.5627 142.731 79.5627 141.835H80.6086L80.6906 144.05C81.0939 143.38 81.6066 142.833 82.2287 142.409C82.8508 141.985 83.5002 141.774 84.1769 141.774C84.4572 141.774 84.758 141.797 85.0793 141.845L84.987 142.901C84.7409 142.86 84.4811 142.84 84.2077 142.84C83.2575 142.84 82.4577 143.216 81.8083 143.968C81.1657 144.713 80.8444 145.598 80.8444 146.624V153.073H79.5832ZM87.0378 153.073V141.835H88.3195V153.073H87.0378ZM87.0378 139.538V137.816H88.3093V139.538H87.0378ZM91.4777 158.077V141.835H92.6159L92.7287 143.435C93.2551 142.833 93.7883 142.382 94.3283 142.081C94.8752 141.78 95.5109 141.63 96.2355 141.63C97.8351 141.63 99.0314 142.163 99.8244 143.23C100.624 144.289 101.024 145.742 101.024 147.588C101.024 149.269 100.604 150.647 99.7629 151.72C98.9221 152.786 97.7839 153.319 96.3483 153.319C95.61 153.319 94.9128 153.145 94.2565 152.797C93.6003 152.448 93.0807 151.99 92.6979 151.422C92.7321 152.263 92.7492 153.09 92.7492 153.904V157.985L91.4777 158.077ZM96.2663 152.274C96.8474 152.274 97.3635 152.133 97.8146 151.853C98.2658 151.573 98.6247 151.2 98.8913 150.735C99.1579 150.271 99.3561 149.765 99.486 149.218C99.6227 148.664 99.6911 148.09 99.6911 147.495C99.6911 146.894 99.6262 146.319 99.4963 145.773C99.3664 145.226 99.1682 144.72 98.9016 144.255C98.6418 143.783 98.2829 143.407 97.8249 143.127C97.3669 142.847 96.8439 142.707 96.256 142.707C95.6203 142.707 95.07 142.823 94.6052 143.055C94.1472 143.281 93.7814 143.606 93.508 144.029C93.2414 144.453 93.0466 144.935 92.9235 145.475C92.8005 146.015 92.739 146.624 92.739 147.3C92.739 148.08 92.7971 148.76 92.9133 149.341C93.0295 149.922 93.2175 150.442 93.4772 150.9C93.7438 151.351 94.1096 151.693 94.5744 151.925C95.0392 152.157 95.6032 152.274 96.2663 152.274ZM106.705 153.309C105.761 153.309 105.071 153.097 104.633 152.673C104.196 152.243 103.977 151.546 103.977 150.582V142.768H102.388L102.48 141.999L103.998 141.856L104.336 139.282L105.228 139.22V141.835H108.509V142.768H105.228V150.315C105.228 151.108 105.358 151.641 105.618 151.915C105.878 152.181 106.336 152.315 106.992 152.315C107.416 152.315 107.942 152.236 108.571 152.079L108.622 153.063C107.795 153.227 107.156 153.309 106.705 153.309Z" fill="black"/>
</svg>
