<svg width="122" height="163" viewBox="0 0 122 163" fill="none" xmlns="http://www.w3.org/2000/svg">
<path d="M60.8358 115.096C59.3812 115.096 57.9393 114.715 56.6647 113.981L43.386 106.117C41.4019 105.007 42.3699 104.615 43.0237 104.389C45.6693 103.464 46.204 103.254 49.0269 101.65C49.3234 101.48 49.7111 101.541 50.0152 101.721L60.2174 107.775C60.5849 107.975 61.1094 107.975 61.449 107.775L101.227 84.8133C101.594 84.6029 101.835 84.1772 101.835 83.7388V37.8389C101.835 37.3803 101.597 36.9723 101.219 36.7442L61.4591 13.8006C61.0917 13.5827 60.6026 13.5827 60.2352 13.8006L20.4805 36.7417C20.0953 36.9596 19.8495 37.3879 19.8495 37.8263V83.7287C19.8495 84.1671 20.0877 84.5852 20.4678 84.793L31.3618 91.0851C37.2764 94.0424 40.89 90.558 40.89 87.0534V41.7516C40.89 41.1054 41.3968 40.6062 42.0455 40.6062H47.0833C47.7117 40.6062 48.2287 41.1028 48.2287 41.7516V87.0762C48.2287 94.9623 43.9283 99.4932 36.4503 99.4932C34.1493 99.4932 32.3374 99.4932 27.2794 97.0047L16.844 90.9914C14.2643 89.4963 12.6704 86.7062 12.6704 83.7312V37.8288C12.6704 34.8411 14.2643 32.0536 16.8415 30.5788L56.6621 7.6073C59.181 6.18315 62.526 6.18315 65.0271 7.6073L104.797 30.5889C107.362 32.0714 108.966 34.8512 108.966 37.8389V83.7413C108.966 86.7189 107.362 89.4963 104.795 90.9914L65.0246 113.96C63.75 114.698 62.3055 115.075 60.8332 115.075" fill="#21A366"/>
<path d="M73.1235 83.4651C55.7194 83.4651 52.0703 75.4752 52.0703 68.775C52.0703 68.139 52.5847 67.6296 53.2233 67.6296H58.3624C58.9301 67.6296 59.409 68.0427 59.4977 68.6027C60.2731 73.8381 62.5842 76.4787 73.1083 76.4787C81.491 76.4787 85.0565 74.5857 85.0565 70.1384C85.0565 67.5789 84.0403 65.6784 71.0177 64.4037C60.1236 63.3293 53.3931 60.9295 53.3931 52.2173C53.3931 44.1919 60.1642 39.4126 71.5042 39.4126C84.2405 39.4126 90.5529 43.8346 91.3486 53.3323C91.379 53.6618 91.2599 53.9785 91.0395 54.2193C90.8215 54.4473 90.5124 54.5867 90.1931 54.5867H85.0261C84.4889 54.5867 84.0201 54.2091 83.9111 53.6896C82.6669 48.1831 79.6589 46.4219 71.4839 46.4219C62.3334 46.4219 61.269 49.6072 61.269 51.9969C61.269 54.8933 62.5234 55.7397 74.8695 57.3742C87.0964 58.996 92.902 61.2868 92.902 69.8799C92.902 78.5414 85.6723 83.5107 73.0677 83.5107" fill="#21A366"/>
<path d="M27.903 147.83V132.573H29.4308L37.8288 145.441L38.3722 146.19C38.3244 144.084 38.3004 142.775 38.3004 142.263V132.573H39.5412V147.83H37.9826L29.6051 134.982L29.0822 134.234C29.1369 135.772 29.1642 137.098 29.1642 138.212V147.83H27.903ZM47.5802 147.061C48.4005 147.061 49.091 146.846 49.6515 146.415C50.2189 145.978 50.6291 145.404 50.882 144.693C51.1417 143.982 51.2716 143.165 51.2716 142.242C51.2716 140.793 50.964 139.627 50.3488 138.745C49.7335 137.864 48.797 137.423 47.5392 137.423C46.7189 137.423 46.0182 137.645 45.4372 138.089C44.8629 138.527 44.4425 139.104 44.1759 139.822C43.9093 140.533 43.776 141.35 43.776 142.273C43.776 143.674 44.1007 144.823 44.7501 145.718C45.4064 146.614 46.3498 147.061 47.5802 147.061ZM47.4879 148.077C46.4694 148.077 45.5705 147.82 44.7912 147.307C44.0187 146.795 43.4274 146.101 43.0172 145.226C42.6139 144.344 42.4123 143.349 42.4123 142.242C42.4123 141.408 42.5285 140.636 42.7609 139.925C43.0001 139.207 43.3385 138.588 43.776 138.069C44.2135 137.542 44.757 137.132 45.4064 136.838C46.0558 136.537 46.777 136.387 47.57 136.387C48.6227 136.387 49.5353 136.647 50.3078 137.166C51.0802 137.679 51.6579 138.373 52.0407 139.248C52.4303 140.116 52.6251 141.107 52.6251 142.222C52.6251 143.343 52.4269 144.341 52.0304 145.216C51.6339 146.091 51.0426 146.788 50.2565 147.307C49.4704 147.82 48.5475 148.077 47.4879 148.077ZM59.3722 148.066C57.8751 148.066 56.7062 147.547 55.8654 146.508C55.0314 145.469 54.6144 144.033 54.6144 142.201C54.6144 140.478 55.0451 139.08 55.9064 138.007C56.7746 136.927 57.9162 136.387 59.3312 136.387C60.0285 136.387 60.7257 136.537 61.423 136.838C62.1203 137.139 62.65 137.607 63.0124 138.243V137.905V132.234L64.2428 132.121V147.83H63.1867L63.0021 146.139C62.6124 146.774 62.0827 147.256 61.4127 147.584C60.7497 147.906 60.0695 148.066 59.3722 148.066ZM59.3415 147.061C59.9772 147.061 60.5343 146.945 61.0128 146.713C61.4914 146.48 61.8742 146.152 62.1613 145.728C62.4484 145.305 62.6603 144.819 62.797 144.272C62.9406 143.719 63.0124 143.107 63.0124 142.437C63.0124 139.094 61.7819 137.423 59.3209 137.423C58.7399 137.423 58.2272 137.563 57.7829 137.843C57.3385 138.117 56.9865 138.489 56.7267 138.961C56.4738 139.426 56.2858 139.935 56.1627 140.489C56.0397 141.036 55.9782 141.613 55.9782 142.222C55.9782 142.748 56.0158 143.244 56.091 143.708C56.1662 144.166 56.2892 144.604 56.4601 145.021C56.631 145.438 56.8429 145.797 57.0958 146.098C57.3488 146.391 57.6666 146.627 58.0495 146.805C58.4323 146.976 58.8629 147.061 59.3415 147.061ZM71.8205 148.077C70.2687 148.077 69.0348 147.557 68.1188 146.518C67.2096 145.479 66.755 144.071 66.755 142.293C66.755 140.578 67.1994 139.173 68.088 138.079C68.9835 136.985 70.1388 136.421 71.5539 136.387C72.8732 136.387 73.9328 136.859 74.7326 137.802C75.5324 138.745 75.9323 140.01 75.9323 141.596C75.9323 141.658 75.9289 141.784 75.922 141.975C75.922 142.16 75.922 142.29 75.922 142.365H68.0983C68.112 143.807 68.4606 144.953 69.1442 145.8C69.8278 146.641 70.7301 147.061 71.8512 147.061C72.5827 147.061 73.2184 146.976 73.7584 146.805C74.2985 146.634 74.8624 146.391 75.4503 146.077L75.6657 147.031C74.5309 147.728 73.2492 148.077 71.8205 148.077ZM68.1496 141.34H74.548C74.548 140.089 74.278 139.132 73.7379 138.469C73.1979 137.799 72.4562 137.464 71.5128 137.464C70.5558 137.464 69.7833 137.819 69.1955 138.53C68.6076 139.241 68.2589 140.178 68.1496 141.34ZM81.1413 153.47L80.9464 152.445H81.4489C81.9274 152.445 82.2999 152.407 82.5666 152.332C82.8332 152.264 83.0246 152.11 83.1408 151.87C83.2638 151.638 83.3356 151.412 83.3561 151.194C83.3766 150.982 83.3869 150.62 83.3869 150.107C83.3869 150.093 83.3869 150.083 83.3869 150.076V136.592H84.6686V150.363C84.6686 151.006 84.6242 151.518 84.5353 151.901C84.4533 152.284 84.2926 152.595 84.0534 152.834C83.8209 153.08 83.5167 153.248 83.1408 153.337C82.7716 153.426 82.2726 153.47 81.6437 153.47H81.1413ZM83.3869 134.285V132.573H84.6686V134.285H83.3869ZM90.7082 148.087C89.9835 148.087 89.3034 147.998 88.6676 147.82C88.0319 147.642 87.5294 147.431 87.1603 147.184L87.3449 146.118C88.4728 146.706 89.5529 147 90.5851 147C92.4376 147 93.3981 146.313 93.4665 144.939C93.4665 144.365 93.2785 143.913 92.9025 143.585C92.5333 143.257 91.7882 142.915 90.6671 142.56C90.0792 142.355 89.7545 142.242 89.693 142.222C87.9362 141.688 87.0509 140.742 87.0373 139.381C87.0373 138.595 87.3825 137.901 88.0729 137.3C88.7702 136.691 89.7101 136.387 90.8927 136.387C92.0753 136.387 93.1862 136.62 94.2252 137.084L93.7946 138.028C92.7418 137.631 91.7643 137.433 90.862 137.433C90.069 137.433 89.4435 137.611 88.9855 137.966C88.5343 138.322 88.3087 138.8 88.3087 139.402C88.3087 139.908 88.4557 140.297 88.7497 140.571C89.0504 140.837 89.6417 141.094 90.5236 141.34C90.6193 141.367 90.7936 141.429 91.0465 141.524C91.3063 141.62 91.4499 141.671 91.4772 141.678C92.6598 142.04 93.4835 142.471 93.9484 142.97C94.4201 143.462 94.6559 144.136 94.6559 144.99C94.6354 145.974 94.2663 146.737 93.5485 147.277C92.8375 147.817 91.8908 148.087 90.7082 148.087Z" fill="black"/>
</svg>
