<svg width="138" height="173" viewBox="0 0 138 173" fill="none" xmlns="http://www.w3.org/2000/svg">
<path d="M66.8176 86.1581C34.1282 86.1581 8.53418 75.0082 8.53418 60.8175C8.53418 46.6267 34.1282 35.4769 66.8176 35.4769C99.507 35.4769 125.101 46.6267 125.101 60.8175C125.101 75.0082 99.507 86.1581 66.8176 86.1581ZM66.8176 40.545C34.8884 40.545 13.6023 50.9346 13.6023 60.8175C13.6023 70.7003 34.8884 81.09 66.8176 81.09C98.7468 81.09 120.033 70.7003 120.033 60.8175C120.033 50.9346 98.7468 40.545 66.8176 40.545Z" fill="#80DEEA"/>
<path d="M44.2644 113.019C41.7303 113.019 39.703 112.512 37.6758 111.245C25.2589 104.15 28.5532 76.5287 44.7712 48.1472C52.3734 34.9701 61.7494 23.8202 70.872 16.7248C80.7549 9.12264 89.6241 6.84198 95.7058 10.3897C102.041 13.9374 104.322 22.8066 102.801 35.2235C101.281 46.8802 96.2126 60.5641 88.6104 73.7412C81.0083 86.9184 71.6322 98.0682 62.5096 105.164C55.921 110.232 49.5859 113.019 44.2644 113.019ZM89.3707 13.6839C85.3162 13.6839 79.9946 15.9646 74.1663 20.5259C65.5505 27.3679 56.6813 38.0109 49.3325 50.6813C33.3679 78.3025 31.8474 102.123 40.2099 106.937C44.5178 109.472 51.6131 107.191 59.4687 101.109C68.0845 94.2671 76.9538 83.6241 84.3025 70.9538C91.6513 58.2834 96.466 45.3597 97.9865 34.4633C99.2535 24.327 97.7331 17.2316 93.4252 14.6976C92.1581 14.1908 90.8911 13.6839 89.3707 13.6839Z" fill="#80DEEA"/>
<path d="M89.624 113.019C76.9537 113.019 58.7085 97.5614 45.0245 73.4878C28.5531 45.1063 25.2588 17.485 37.6757 10.3896C50.0926 3.29427 72.3924 19.7657 88.8638 48.1472C96.466 61.3243 101.534 75.0082 103.055 86.6649C104.828 99.0818 102.294 107.698 95.9592 111.499C93.9319 112.512 91.9047 113.019 89.624 113.019ZM40.2098 14.6976C31.8474 19.5123 33.3678 43.3325 49.3324 70.9537C65.297 98.575 85.0627 111.752 93.4251 106.937C97.733 104.403 99.2535 97.308 97.9864 87.1717C96.466 76.2753 91.6513 63.3516 84.3025 50.6812C68.3379 23.06 48.5722 9.88284 40.2098 14.6976Z" fill="#80DEEA"/>
<path d="M66.8174 70.9538C72.4155 70.9538 76.9536 66.4156 76.9536 60.8175C76.9536 55.2194 72.4155 50.6813 66.8174 50.6813C61.2193 50.6813 56.6812 55.2194 56.6812 60.8175C56.6812 66.4156 61.2193 70.9538 66.8174 70.9538Z" fill="#80DEEA"/>
<path d="M34.7416 146V130.742H39.0892C39.6429 130.742 40.1215 130.752 40.5248 130.773C40.9349 130.793 41.3519 130.838 41.7757 130.906C42.1996 130.975 42.5585 131.067 42.8524 131.183C43.1532 131.292 43.4369 131.443 43.7035 131.634C43.9769 131.826 44.1957 132.058 44.3597 132.332C44.5238 132.598 44.6503 132.919 44.7391 133.295C44.8348 133.671 44.8827 134.099 44.8827 134.577C44.8827 135.514 44.6537 136.317 44.1957 136.987C43.7377 137.657 43.037 138.111 42.0936 138.351C42.5038 139.191 42.8114 139.831 43.0165 140.268L45.5184 146H43.9906L41.8373 140.781C41.6937 140.439 41.3724 139.701 40.8734 138.566C40.7367 138.586 40.2308 138.597 39.3558 138.597L36.0541 138.535V146H34.7416ZM39.9198 137.51C41.2801 137.51 42.2303 137.274 42.7704 136.802C43.3104 136.324 43.5804 135.589 43.5804 134.598C43.5804 133.709 43.3343 133.029 42.8422 132.557C42.3568 132.079 41.5262 131.839 40.3505 131.839H36.0541V137.479C37.6605 137.5 38.9491 137.51 39.9198 137.51ZM52.6141 146.246C51.0624 146.246 49.8285 145.727 48.9125 144.688C48.0033 143.648 47.5487 142.24 47.5487 140.463C47.5487 138.747 47.993 137.342 48.8817 136.249C49.7772 135.155 50.9325 134.591 52.3475 134.557C53.6669 134.557 54.7264 135.028 55.5262 135.972C56.326 136.915 56.7259 138.18 56.7259 139.766C56.7259 139.827 56.7225 139.954 56.7157 140.145C56.7157 140.33 56.7157 140.459 56.7157 140.535H48.892C48.9056 141.977 49.2543 143.122 49.9379 143.97C50.6215 144.811 51.5238 145.231 52.6449 145.231C53.3763 145.231 54.0121 145.146 54.5521 144.975C55.0922 144.804 55.6561 144.561 56.244 144.247L56.4593 145.2C55.3246 145.897 54.0428 146.246 52.6141 146.246ZM48.9432 139.509H55.3417C55.3417 138.258 55.0716 137.301 54.5316 136.638C53.9916 135.968 53.2499 135.633 52.3065 135.633C51.3495 135.633 50.577 135.989 49.9891 136.7C49.4012 137.411 49.0526 138.347 48.9432 139.509ZM62.14 146.246C61.0804 146.246 60.2328 145.979 59.597 145.446C58.9613 144.913 58.6434 144.151 58.6434 143.16C58.6434 142.572 58.7699 142.062 59.0228 141.632C59.2757 141.194 59.6415 140.842 60.12 140.576C60.6053 140.302 61.1556 140.09 61.7709 139.94C62.3929 139.79 63.1141 139.684 63.9344 139.622C64.8094 139.567 65.4589 139.523 65.8827 139.489V138.238C65.8827 137.376 65.6844 136.73 65.288 136.3C64.8983 135.862 64.2694 135.644 63.4012 135.644C62.2118 135.644 61.1009 135.927 60.0687 136.495C60.0414 136.426 59.9764 136.279 59.8739 136.054C59.7782 135.821 59.7098 135.644 59.6688 135.521C60.0926 135.247 60.6464 135.018 61.3299 134.833C62.0135 134.649 62.6835 134.557 63.3397 134.557C64.6864 134.557 65.6537 134.847 66.2416 135.428C66.8295 136.002 67.1234 137.024 67.1234 138.494V146H66.1288C66.0946 145.843 66.0433 145.532 65.975 145.067C65.9134 144.602 65.8827 144.363 65.8827 144.349C65.0008 145.614 63.7533 146.246 62.14 146.246ZM62.181 145.231C63.056 145.231 63.8319 144.975 64.5087 144.462C65.1923 143.942 65.64 143.225 65.8519 142.309V140.391C64.8675 140.473 64.3719 140.514 64.3651 140.514C62.6971 140.665 61.5384 140.938 60.889 141.334C60.2396 141.731 59.9149 142.346 59.9149 143.18C59.9149 143.864 60.12 144.376 60.5301 144.718C60.9471 145.06 61.4974 145.231 62.181 145.231ZM74.8754 146.246C73.7884 146.246 72.8451 145.979 72.0453 145.446C71.2455 144.913 70.6507 144.219 70.2611 143.365C69.8715 142.503 69.6766 141.546 69.6766 140.494C69.6766 139.687 69.7928 138.928 70.0253 138.217C70.2577 137.506 70.5858 136.877 71.0096 136.331C71.4403 135.784 71.9906 135.353 72.6605 135.039C73.3373 134.717 74.0892 134.557 74.9164 134.557C75.4564 134.557 75.993 134.628 76.5262 134.772C77.0663 134.916 77.4662 135.086 77.7259 135.285L77.326 136.238C76.6219 135.842 75.788 135.644 74.8241 135.644C73.6551 135.644 72.7289 136.088 72.0453 136.977C71.3617 137.858 71.0199 139.031 71.0199 140.494C71.0199 141.895 71.3583 143.03 72.035 143.898C72.7186 144.759 73.6483 145.19 74.8241 145.19C75.6444 145.19 76.5262 144.985 77.4696 144.575L77.6644 145.487C77.3431 145.727 76.9261 145.911 76.4134 146.041C75.9007 146.178 75.3881 146.246 74.8754 146.246ZM83.2631 146.236C82.3197 146.236 81.6293 146.024 81.1918 145.6C80.7543 145.169 80.5355 144.472 80.5355 143.508V135.695H78.9462L79.0384 134.926L80.556 134.782L80.8944 132.208L81.7865 132.147V134.762H85.0677V135.695H81.7865V143.242C81.7865 144.035 81.9164 144.568 82.1761 144.841C82.4359 145.108 82.8939 145.241 83.5502 145.241C83.974 145.241 84.5004 145.163 85.1293 145.005L85.1805 145.99C84.3534 146.154 83.7142 146.236 83.2631 146.236ZM89.682 151.64L89.4872 150.614H89.9896C90.4681 150.614 90.8407 150.577 91.1073 150.501C91.3739 150.433 91.5653 150.279 91.6815 150.04C91.8046 149.808 91.8763 149.582 91.8968 149.363C91.9174 149.151 91.9276 148.789 91.9276 148.276C91.9276 148.263 91.9276 148.252 91.9276 148.246V134.762H93.2093V148.533C93.2093 149.175 93.1649 149.688 93.076 150.071C92.994 150.454 92.8334 150.765 92.5941 151.004C92.3617 151.25 92.0575 151.417 91.6815 151.506C91.3124 151.595 90.8133 151.64 90.1844 151.64H89.682ZM91.9276 132.455V130.742H93.2093V132.455H91.9276ZM99.2489 146.256C98.5243 146.256 97.8441 146.167 97.2084 145.99C96.5726 145.812 96.0702 145.6 95.701 145.354L95.8856 144.288C97.0135 144.875 98.0936 145.169 99.1258 145.169C100.978 145.169 101.939 144.482 102.007 143.108C102.007 142.534 101.819 142.083 101.443 141.755C101.074 141.427 100.329 141.085 99.2079 140.729C98.62 140.524 98.2953 140.412 98.2338 140.391C96.4769 139.858 95.5917 138.911 95.578 137.551C95.578 136.765 95.9232 136.071 96.6136 135.469C97.3109 134.861 98.2508 134.557 99.4335 134.557C100.616 134.557 101.727 134.789 102.766 135.254L102.335 136.197C101.283 135.801 100.305 135.603 99.4027 135.603C98.6097 135.603 97.9842 135.78 97.5262 136.136C97.0751 136.491 96.8495 136.97 96.8495 137.571C96.8495 138.077 96.9965 138.467 97.2904 138.74C97.5912 139.007 98.1825 139.263 99.0643 139.509C99.16 139.537 99.3343 139.598 99.5873 139.694C99.847 139.79 99.9906 139.841 100.018 139.848C101.201 140.21 102.024 140.641 102.489 141.14C102.961 141.632 103.197 142.305 103.197 143.16C103.176 144.144 102.807 144.906 102.089 145.446C101.378 145.986 100.432 146.256 99.2489 146.256Z" fill="black"/>
</svg>
