<svg width="43" height="43" viewBox="0 0 43 43" fill="none" xmlns="http://www.w3.org/2000/svg">
<g clip-path="url(#clip0_105_16)">
<path d="M42.7 8.25998C41.1284 8.94991 39.4401 9.41419 37.6682 9.6236C39.4779 8.55218 40.8656 6.85577 41.5192 4.83306C39.8277 5.82494 37.9523 6.54571 35.9553 6.93531C34.3574 5.25189 32.0812 4.19995 29.562 4.19995C24.724 4.19995 20.8023 8.07816 20.8023 12.859C20.8023 13.5375 20.8811 14.1999 21.0289 14.8313C13.7489 14.471 7.29485 11.0229 2.97246 5.78273C2.22031 7.06194 1.7884 8.54894 1.7884 10.1382C1.7884 13.1414 3.33376 15.7924 5.68381 17.3443C4.24849 17.2989 2.89692 16.9092 1.71615 16.2615C1.71615 16.2989 1.71615 16.333 1.71615 16.3703C1.71615 20.5667 4.73459 24.0666 8.74331 24.8605C8.00923 25.0585 7.23409 25.164 6.43431 25.164C5.87102 25.164 5.32087 25.1088 4.78714 25.0098C5.90223 28.4497 9.13745 30.9546 12.9704 31.0244C9.97335 33.3474 6.19619 34.7321 2.09058 34.7321C1.38441 34.7321 0.686458 34.6915 0 34.6104C3.87734 37.0665 8.48055 38.5 13.4286 38.5C29.5423 38.5 38.3513 25.3053 38.3513 13.8622C38.3513 13.4872 38.3431 13.1138 38.3267 12.7421C40.0396 11.5197 41.5258 9.99535 42.7 8.25998Z" fill="#BEC2CC"/>
</g>
<defs>
<clipPath id="clip0_105_16">
<rect width="42.7" height="42.7" fill="white"/>
</clipPath>
</defs>
</svg>
