<svg width="204" height="217" viewBox="0 0 204 217" fill="none" xmlns="http://www.w3.org/2000/svg">
<path d="M101.625 142.313C137.351 142.313 166.313 113.351 166.313 77.625C166.313 41.8991 137.351 12.9375 101.625 12.9375C65.8991 12.9375 36.9375 41.8991 36.9375 77.625C36.9375 113.351 65.8991 142.313 101.625 142.313Z" fill="#1976D2"/>
<path d="M121.355 69.3126C121.355 69.3126 115.759 86.843 115.339 88.3308C115.177 86.843 111.102 55.3401 111.102 55.3401C101.56 55.3401 96.4824 62.1 93.7978 69.3126C93.7978 69.3126 87.0057 86.9076 86.4558 88.3955C86.4235 87.0047 85.4208 69.5067 85.4208 69.5067C84.8386 60.7092 76.8174 55.3725 70.3163 55.3725L78.1435 103.112C88.1377 103.08 93.5068 96.3197 96.3207 89.1394C96.3207 89.1394 102.304 73.6144 102.563 72.9028C102.628 73.582 106.865 103.112 106.865 103.112C116.859 103.112 122.26 96.7725 125.171 89.8509L139.144 55.3401C129.247 55.3401 124.039 62.1 121.355 69.3126Z" fill="white"/>
<path d="M64.4221 176L59.6848 160.742H61.1306L65.1911 174.544L69.0876 161.152H70.8102L74.6144 174.534L78.6647 160.742H80.1003L75.3732 176H73.9069L69.9797 162.455L65.8781 176H64.4221ZM85.904 176.246C84.3522 176.246 83.1183 175.727 82.2023 174.688C81.2932 173.648 80.8386 172.24 80.8386 170.463C80.8386 168.747 81.2829 167.342 82.1716 166.249C83.0671 165.155 84.2224 164.591 85.6374 164.557C86.9567 164.557 88.0163 165.028 88.8161 165.972C89.6159 166.915 90.0158 168.18 90.0158 169.766C90.0158 169.827 90.0124 169.954 90.0056 170.145C90.0056 170.33 90.0056 170.459 90.0056 170.535H82.1818C82.1955 171.977 82.5441 173.122 83.2277 173.97C83.9113 174.811 84.8137 175.231 85.9348 175.231C86.6662 175.231 87.3019 175.146 87.842 174.975C88.382 174.804 88.946 174.561 89.5339 174.247L89.7492 175.2C88.6144 175.897 87.3327 176.246 85.904 176.246ZM82.2331 169.509H88.6315C88.6315 168.258 88.3615 167.301 87.8215 166.638C87.2814 165.968 86.5397 165.633 85.5964 165.633C84.6393 165.633 83.8669 165.989 83.279 166.7C82.6911 167.411 82.3425 168.347 82.2331 169.509ZM97.4089 176.246C95.8845 176.246 94.6711 175.621 93.7687 174.37L93.6354 176H92.569V160.404L93.8303 160.291V164.075C93.8303 165.23 93.82 166.026 93.7995 166.464C94.2165 165.821 94.7463 165.343 95.3889 165.028C96.0383 164.714 96.7116 164.557 97.4089 164.557C98.9265 164.557 100.109 165.1 100.957 166.187C101.811 167.267 102.238 168.662 102.238 170.371C102.238 171.519 102.061 172.531 101.705 173.406C101.357 174.274 100.813 174.964 100.075 175.477C99.3366 175.99 98.4479 176.246 97.4089 176.246ZM97.4704 175.231C98.0993 175.231 98.6428 175.098 99.1008 174.831C99.5656 174.558 99.9211 174.188 100.167 173.724C100.42 173.252 100.601 172.746 100.711 172.206C100.827 171.659 100.885 171.068 100.885 170.432C100.885 169.926 100.851 169.451 100.782 169.007C100.721 168.556 100.605 168.118 100.434 167.694C100.27 167.264 100.061 166.898 99.8083 166.597C99.5622 166.296 99.2375 166.054 98.8342 165.869C98.4377 165.685 97.9831 165.592 97.4704 165.592C96.2878 165.592 95.382 166.02 94.7531 166.874C94.131 167.722 93.8234 168.928 93.8303 170.494C93.8303 171.211 93.8952 171.854 94.0251 172.421C94.1618 172.982 94.3703 173.478 94.6506 173.908C94.9377 174.332 95.3171 174.66 95.7888 174.893C96.2604 175.118 96.821 175.231 97.4704 175.231ZM105.458 176V165.695H103.612L103.695 164.905L105.458 164.762V164.341C105.458 162.865 105.715 161.792 106.227 161.122C106.747 160.452 107.54 160.117 108.606 160.117C108.914 160.117 109.437 160.168 110.175 160.271L110.083 161.111C109.426 161.036 108.982 160.999 108.75 160.999C107.97 160.999 107.437 161.251 107.15 161.757C106.87 162.256 106.73 163.138 106.73 164.403V164.762H109.467V165.695H106.73V176H105.458ZM115.784 175.231C116.604 175.231 117.295 175.016 117.855 174.585C118.423 174.147 118.833 173.573 119.086 172.862C119.345 172.151 119.475 171.334 119.475 170.412C119.475 168.962 119.168 167.797 118.552 166.915C117.937 166.033 117.001 165.592 115.743 165.592C114.923 165.592 114.222 165.814 113.641 166.259C113.067 166.696 112.646 167.274 112.38 167.992C112.113 168.703 111.98 169.52 111.98 170.442C111.98 171.844 112.304 172.992 112.954 173.888C113.61 174.783 114.553 175.231 115.784 175.231ZM115.692 176.246C114.673 176.246 113.774 175.99 112.995 175.477C112.222 174.964 111.631 174.271 111.221 173.396C110.818 172.514 110.616 171.519 110.616 170.412C110.616 169.578 110.732 168.805 110.965 168.094C111.204 167.376 111.542 166.758 111.98 166.238C112.417 165.712 112.961 165.302 113.61 165.008C114.259 164.707 114.981 164.557 115.774 164.557C116.826 164.557 117.739 164.816 118.511 165.336C119.284 165.849 119.862 166.542 120.244 167.417C120.634 168.286 120.829 169.277 120.829 170.391C120.829 171.512 120.631 172.51 120.234 173.385C119.838 174.26 119.246 174.958 118.46 175.477C117.674 175.99 116.751 176.246 115.692 176.246ZM126.161 176.236C125.217 176.236 124.527 176.024 124.09 175.6C123.652 175.169 123.433 174.472 123.433 173.508V160.394L124.684 160.291V173.437C124.684 174.12 124.807 174.592 125.053 174.852C125.306 175.111 125.686 175.241 126.192 175.241C126.602 175.241 127.114 175.163 127.73 175.005L127.781 175.99C127.111 176.154 126.571 176.236 126.161 176.236ZM131.154 176L128.017 164.762H129.35L131.944 174.8C133.81 168.798 134.853 165.452 135.071 164.762H136.63C138.674 171.434 139.706 174.77 139.727 174.77L142.208 164.762H143.531L140.445 176H138.968C138.947 176.007 138.466 174.431 137.522 171.273C136.579 168.115 136.032 166.259 135.882 165.705C135.799 166.074 135.488 167.117 134.948 168.833C134.408 170.542 133.889 172.165 133.39 173.703C132.891 175.241 132.638 176.007 132.631 176H131.154Z" fill="black"/>
</svg>
