<svg width="43" height="36" viewBox="0 0 43 36" fill="none" xmlns="http://www.w3.org/2000/svg">
<path d="M21.35 0C14.4753 0 5.55241 1.70181 5.55241 1.70181L5.52996 1.72716C2.39886 2.22191 0 4.88012 0 8.11292V17.8484V17.8516V27.5839V27.5871C0.00305544 29.131 0.563098 30.6233 1.57957 31.796C2.59604 32.9687 4.00235 33.745 5.546 33.9855L5.55241 33.995C5.55241 33.995 14.4753 35.7 21.35 35.7C28.2247 35.7 37.1476 33.995 37.1476 33.995L37.1508 33.9919C38.6961 33.7519 40.104 32.975 41.1213 31.8009C42.1385 30.6268 42.6984 29.1326 42.7 27.5871V27.5839V17.8516V17.8484V8.11292C42.6977 6.56843 42.138 5.07536 41.1215 3.902C40.1049 2.72864 38.6982 1.95189 37.154 1.71132L37.1476 1.70181C37.1476 1.70181 28.2247 0 21.35 0ZM16.4231 10.382L29.5615 17.8484L16.4231 25.3148V10.382Z" fill="#BEC2CC"/>
</svg>
